<?xml version="1.0" encoding="UTF-8" standalone="no"?><!DOCTYPE svg PUBLIC "-//W3C//DTD SVG 1.1//EN" "http://www.w3.org/Graphics/SVG/1.1/DTD/svg11.dtd"><svg width="100%" height="100%" viewBox="0 0 134 134" version="1.1" xmlns="http://www.w3.org/2000/svg" xmlns:xlink="http://www.w3.org/1999/xlink" xml:space="preserve" xmlns:serif="http://www.serif.com/" style="fill-rule:evenodd;clip-rule:evenodd;stroke-linejoin:round;stroke-miterlimit:2;"><path d="M112.821,91.575c-0.625,2.775 -2.029,9.617 -5.046,13.229c-2.217,2.663 -4.787,4.184 -8.221,4.646c-0.762,0.104 -3.854,0.154 -5.091,0.154c-0.992,0 -1.796,-0.8 -1.796,-1.791l-0,-15.584c-0,-13.587 -8.059,-22.158 -20.529,-22.158c-5.371,-0 -10.109,1.558 -13.371,4.825c-1.538,1.537 -1.884,2.267 -2.634,3.55c-0.358,0.617 -1.687,2.629 -1.716,2.646c-0.154,0.133 -0.384,0.15 -0.554,0.041c-0.175,-0.112 -0.259,-0.32 -0.205,-0.52c0.38,-1.613 1.721,-7.592 1.721,-15.5l0,-10.342c0,-5.858 -3.15,-9.008 -9.008,-9.008l-1.417,-0c-5.854,-0 -9.008,3.15 -9.008,9.008l-0,62.987c-0,5.855 3.154,9.005 9.008,9.005l1.417,-0c5.858,-0 9.008,-3.15 9.008,-9.005l0,-19.754c0,-5.941 3.854,-9.941 9.55,-9.941c5.371,-0 8.3,3.091 8.3,9.062l0,20.633c0,5.855 3.154,9.005 9.009,9.005l14.062,-0c13.367,-0 20.175,-3.63 26.708,-10.892c4.321,-4.8 6.534,-12.129 7.838,-17.221c1.554,-6.062 2.487,-12.4 2.487,-18.958c0,-40.359 -32.766,-73.121 -73.125,-73.121c-23.762,-0 -44.895,11.354 -58.254,28.937c-3.204,4.217 -2.383,10.246 1.838,13.45c4.216,3.205 10.246,2.384 13.45,-1.837c9.854,-12.967 25.437,-21.354 42.966,-21.354c29.763,-0 53.925,24.162 53.925,53.925c0,4.083 -0.454,8.062 -1.312,11.883Z" style="fill:#2f76e6;fill-rule:nonzero;"/></svg>